<?xml version="1.0" standalone="no"?>
<!DOCTYPE svg PUBLIC "-//W3C//DTD SVG 20010904//EN"
 "http://www.w3.org/TR/2001/REC-SVG-20010904/DTD/svg10.dtd">
<svg version="1.0" xmlns="http://www.w3.org/2000/svg"
 width="452.000000pt" height="452.000000pt" viewBox="0 0 452.000000 452.000000"
 preserveAspectRatio="xMidYMid meet">

<g transform="translate(0.000000,452.000000) scale(0.100000,-0.100000)"
fill="#000000" stroke="none">
<path d="M2360 3753 c-360 -35 -664 -177 -910 -423 -277 -277 -423 -628 -423
-1020 0 -355 121 -680 351 -947 356 -411 911 -587 1440 -457 248 61 462 179
648 357 249 238 394 524 439 863 16 122 11 144 -34 144 -20 0 -34 -8 -46 -27
-90 -141 -237 -269 -400 -348 -161 -78 -254 -99 -440 -99 -130 1 -163 4 -249
27 -316 85 -575 319 -685 619 -48 129 -55 177 -55 348 0 189 17 273 84 417 79
170 201 312 354 415 116 77 121 83 86 118 -20 20 -59 23 -160 13z m-114 -164
c-130 -122 -234 -282 -292 -452 -73 -213 -72 -491 2 -699 205 -576 810 -871
1388 -677 150 50 279 129 399 245 67 65 69 59 33 -67 -205 -708 -926 -1123
-1637 -944 -515 130 -912 558 -1005 1085 -22 125 -22 335 0 460 87 491 436
897 907 1054 84 28 211 59 273 65 4 1 -26 -31 -68 -70z"/>
<path d="M1993 3511 c-92 -38 -243 -126 -243 -140 0 -5 6 -13 13 -19 9 -8 32
2 87 35 63 39 172 89 253 117 22 7 19 40 -3 43 -8 2 -56 -15 -107 -36z"/>
<path d="M1573 3218 c-139 -147 -260 -393 -294 -601 -10 -62 -10 -80 0 -90 16
-16 41 16 41 54 0 54 50 222 94 314 50 107 84 160 168 262 55 68 65 93 34 93
-6 0 -26 -15 -43 -32z"/>
<path d="M2243 1636 c-24 -49 -31 -57 -63 -62 -81 -13 -90 -16 -90 -32 0 -9
18 -35 40 -57 l40 -41 -11 -58 c-14 -76 -3 -83 68 -48 l53 26 53 -26 c72 -35
82 -28 69 48 l-10 59 45 47 c25 25 42 51 39 57 -4 5 -23 13 -44 16 -77 13 -80
15 -109 67 -15 28 -34 53 -40 56 -7 2 -24 -21 -40 -52z m120 -104 c44 -4 46
-10 11 -43 -22 -20 -25 -30 -21 -66 5 -47 2 -50 -27 -28 -25 19 -49 19 -88 -1
l-31 -16 6 42 c5 36 1 46 -25 76 l-30 34 33 0 c42 0 52 7 74 49 l17 34 22 -39
c18 -33 27 -39 59 -42z"/>
<path d="M1016 3657 l-24 -54 -62 -9 c-37 -5 -65 -15 -68 -22 -2 -8 16 -32 41
-55 l45 -42 -10 -59 c-14 -80 -3 -89 65 -52 l53 28 57 -28 c72 -35 81 -28 66
50 l-11 59 43 43 c53 54 48 70 -26 79 -56 7 -57 8 -83 61 -35 71 -55 71 -86 1z
m66 -61 c14 -28 23 -34 59 -40 l42 -7 -31 -32 c-27 -28 -31 -37 -25 -70 6 -42
4 -43 -39 -21 -29 15 -34 15 -65 0 -18 -9 -35 -16 -36 -16 -1 0 -1 18 1 41 4
34 0 45 -23 69 l-28 29 42 7 c36 6 45 12 59 40 8 19 19 34 22 34 3 0 14 -15
22 -34z"/>
<path d="M2753 2898 c-6 -7 -20 -32 -32 -55 -19 -39 -25 -43 -71 -49 -27 -4
-57 -12 -67 -19 -15 -11 -12 -17 31 -62 l47 -51 -11 -48 c-18 -81 0 -92 76
-48 l44 26 46 -26 c81 -45 92 -37 74 54 -8 44 -7 46 38 94 41 44 44 50 29 61
-10 7 -40 15 -67 19 -47 6 -50 9 -77 58 -30 56 -44 66 -60 46z m40 -103 c14
-29 23 -36 57 -41 l40 -7 -29 -32 c-25 -29 -28 -38 -21 -73 l7 -41 -38 20
c-36 18 -41 18 -69 4 -40 -21 -41 -20 -38 25 1 32 -4 46 -26 69 l-27 28 41 7
c34 5 43 12 57 41 9 19 20 35 23 35 3 0 14 -16 23 -35z"/>
</g>
</svg>
