<?xml version="1.0" standalone="no"?>
<!DOCTYPE svg PUBLIC "-//W3C//DTD SVG 20010904//EN"
 "http://www.w3.org/TR/2001/REC-SVG-20010904/DTD/svg10.dtd">
<svg version="1.0" xmlns="http://www.w3.org/2000/svg"
 width="452.000000pt" height="452.000000pt" viewBox="0 0 452.000000 452.000000"
 preserveAspectRatio="xMidYMid meet">

<g transform="translate(0.000000,452.000000) scale(0.100000,-0.100000)"
fill="#000000" stroke="none">
<path d="M2110 4085 c-8 -2 -49 -9 -90 -15 -260 -42 -536 -192 -728 -395 -180
-190 -292 -407 -349 -676 -24 -117 -24 -372 0 -489 57 -269 169 -486 346 -673
111 -116 230 -205 369 -274 l112 -57 0 -118 0 -118 -141 0 -140 0 3 -163 c3
-162 3 -164 33 -213 41 -65 105 -104 184 -111 l61 -6 0 -81 c0 -97 27 -166 84
-213 60 -49 88 -53 406 -53 318 0 346 4 406 53 57 47 84 116 84 213 l0 81 61
6 c79 7 143 46 184 111 30 49 30 51 33 213 l3 163 -140 0 -141 0 0 118 0 118
113 57 c313 157 561 444 667 772 51 162 64 246 64 415 0 167 -15 268 -60 413
-104 326 -348 617 -653 775 -204 106 -346 142 -586 147 -93 2 -177 2 -185 0z
m386 -150 c485 -101 858 -483 949 -974 32 -174 15 -399 -42 -576 -110 -339
-380 -626 -708 -751 l-75 -29 0 -167 0 -168 -145 0 -145 0 2 392 3 391 70 14
c39 8 113 35 165 60 82 39 108 58 185 137 69 69 99 109 128 167 42 85 77 211
77 276 l0 43 -63 0 -63 0 -16 -85 c-35 -187 -150 -343 -308 -418 -226 -107
-473 -66 -646 107 -96 96 -153 211 -169 344 l-7 52 -65 0 -66 0 6 -73 c8 -87
43 -197 89 -275 18 -32 71 -96 118 -143 72 -73 99 -93 180 -132 52 -25 127
-52 165 -60 l70 -14 3 -391 2 -392 -145 0 -145 0 0 168 0 169 -83 31 c-321
122 -591 410 -700 747 -78 238 -76 522 3 755 147 431 541 753 991 809 97 13
289 5 385 -14z m402 -2881 c-3 -71 -6 -78 -36 -105 l-32 -29 -570 0 -570 0
-32 29 c-30 27 -33 34 -36 105 l-4 76 642 0 642 0 -4 -76z m-283 -345 c0 -37
-6 -77 -14 -92 -28 -52 -55 -57 -341 -57 -332 0 -346 5 -357 131 -9 97 -41 90
359 87 l353 -3 0 -66z"/>
</g>
</svg>
